<mxfile host="app.diagrams.net" modified="2020-10-02T17:18:35.771Z" agent="5.0 (Windows)" etag="JTvIpnC1b6b1Sj-QmFj5" version="13.7.7" type="github">
  <diagram id="KGZ8Q7pAhiNxgJBVYZBq" name="Page-1">
    <mxGraphModel dx="780" dy="790" grid="1" gridSize="10" guides="1" tooltips="1" connect="1" arrows="1" fold="1" page="1" pageScale="1" pageWidth="827" pageHeight="1169" math="0" shadow="0">
      <root>
        <mxCell id="0" />
        <mxCell id="1" parent="0" />
      </root>
    </mxGraphModel>
  </diagram>
</mxfile>
